<svg width="1028" height="283" viewBox="0 0 1028 283" fill="none" xmlns="http://www.w3.org/2000/svg">
<g clip-path="url(#clip0_101_6)">
<g clip-path="url(#clip1_101_6)">
<g clip-path="url(#clip2_101_6)">
<g clip-path="url(#clip3_101_6)">
<path d="M145.18 -6.10352e-05C65.1269 -6.10352e-05 0 63.2949 0 141.097C0 218.898 65.1269 282.193 145.18 282.193C225.234 282.193 290.361 218.898 290.361 141.097C290.361 63.2949 225.234 -6.10352e-05 145.18 -6.10352e-05ZM251.485 220.921C239.155 214.54 224.196 209.293 207.613 205.515C212.033 187.742 214.657 167.717 215.023 146.322H279.472C278.332 174.343 268.068 200.117 251.485 220.921ZM10.8885 146.322H33.171C35.4724 153.414 42.226 158.608 50.2755 158.608C58.54 158.608 65.4495 153.142 67.5627 145.758C68.2778 146.092 69.0521 146.322 69.9017 146.322H75.3433C75.7089 167.403 78.2576 187.167 82.5647 204.752C65.8151 208.3 50.5927 213.312 37.7953 219.583C21.8416 199.014 12.007 173.742 10.8885 146.322ZM38.048 62.2967C50.469 69.1059 65.5355 74.593 82.2797 78.5751C78.1393 95.8725 75.6982 115.239 75.3433 135.871H69.9017C69.0521 135.871 68.2778 136.101 67.5627 136.44C65.4495 129.051 58.54 123.59 50.2755 123.59C42.226 123.59 35.4724 128.779 33.171 135.876H10.8885C12.0123 108.31 21.9491 82.923 38.048 62.2967ZM145.18 104.516C148.143 104.516 150.558 106.862 150.558 109.742C150.558 112.621 148.143 114.968 145.18 114.968C142.218 114.968 139.803 112.621 139.803 109.742C139.803 106.862 142.218 104.516 145.18 104.516ZM150.558 124.458C156.8 122.289 161.312 116.546 161.312 109.742C161.312 102.938 156.8 97.1946 150.558 95.0259V85.9748C166.802 85.8912 182.691 84.5221 197.693 82.0607C201.564 98.4279 203.903 116.687 204.269 135.871H150.558V124.458ZM150.558 75.5232V11.0421C169.038 14.9248 185.352 38.5193 195.031 71.9227C180.9 74.1854 165.904 75.4396 150.558 75.5232ZM139.803 11.0421V75.3351C124.409 74.8805 109.557 73.297 95.6954 70.6789C105.417 37.934 121.559 14.8726 139.803 11.0421ZM139.803 85.8703V95.0259C133.555 97.1946 129.049 102.938 129.049 109.742C129.049 116.546 133.555 122.289 139.803 124.452V135.871H86.0974C86.4684 116.222 88.9096 97.5395 92.9531 80.864C107.692 83.6912 123.495 85.4052 139.803 85.8703ZM57.5399 141.097C57.5399 144.99 54.2814 148.157 50.2755 148.157C46.2695 148.157 43.0164 144.99 43.0164 141.097C43.0164 137.203 46.2749 134.037 50.2808 134.037C54.2867 134.037 57.5399 137.203 57.5399 141.097ZM86.0974 146.322H139.803V198.675C123.753 198.852 108.079 200.263 93.2919 202.756C89.044 185.73 86.4792 166.525 86.0974 146.322ZM139.803 209.121V271.151C121.806 267.373 105.858 244.902 96.0933 212.873C109.977 210.584 124.699 209.293 139.803 209.121ZM150.558 271.151V209.173C150.902 209.184 151.257 209.184 151.595 209.194C153.87 215.183 159.747 219.484 166.689 219.484C172.738 219.484 177.954 216.197 180.712 211.394C185.261 211.974 189.724 212.654 194.096 213.443C184.32 245.174 168.447 267.394 150.558 271.151ZM166.689 209.032C163.721 209.032 161.312 206.691 161.312 203.806C161.312 200.922 163.721 198.58 166.689 198.58C169.657 198.58 172.066 200.922 172.066 203.806C172.066 206.691 169.657 209.032 166.689 209.032ZM182.535 201.094C181.207 193.741 174.631 188.129 166.689 188.129C159.629 188.129 153.676 192.592 151.498 198.737C151.187 198.732 150.875 198.727 150.558 198.722V146.322H204.264C203.882 166.755 201.252 186.159 196.924 203.325C192.219 202.458 187.417 201.726 182.535 201.094ZM215.018 135.871C214.673 115.861 212.367 97.0326 208.447 80.1324C225.659 76.5788 241.268 71.4628 254.378 65.0455C269.251 85.1596 278.397 109.517 279.467 135.866L215.018 135.871ZM247.597 56.6111C235.579 62.2601 221.443 66.817 205.834 70.0048C198.94 45.6996 188.568 26.1394 175.98 13.9476C204.366 20.4485 229.304 35.6922 247.597 56.6111ZM114.381 13.9528C102.067 25.8781 91.8723 44.8321 84.979 68.4005C69.9232 64.8312 56.3623 60.0078 45.0597 54.0347C63.1212 34.438 87.1674 20.1768 114.381 13.9528ZM44.8339 227.902C56.5182 222.431 70.2082 218.01 85.2801 214.848C92.1681 237.931 102.25 256.493 114.381 268.24C87.0491 261.99 62.9223 247.63 44.8339 227.902ZM175.986 268.24C187.976 256.623 197.967 238.333 204.844 215.611C219.739 218.987 233.203 223.565 244.425 229.12C226.465 248.226 202.753 262.116 175.986 268.24Z" fill="#E05BFF"/>
</g>
</g>
</g>
<mask id="mask0_101_6" style="mask-type:luminance" maskUnits="userSpaceOnUse" x="0" y="0" width="1028" height="283">
<g clip-path="url(#clip4_101_6)">
<g clip-path="url(#clip5_101_6)">
<g clip-path="url(#clip6_101_6)">
<g clip-path="url(#clip7_101_6)">
<g clip-path="url(#clip8_101_6)">
<g clip-path="url(#clip9_101_6)">
<path d="M355.197 133.754V184.936H389.194C398.675 184.936 405.978 182.805 411.104 178.544C416.2 174.311 418.748 168.091 418.748 159.885C418.748 151.679 415.904 145.272 410.215 140.665C404.497 136.058 396.379 133.754 385.861 133.754H355.197ZM382.306 69.1829H355.197V118.853H379.195C391.194 118.853 400.083 116.406 405.86 111.51C411.637 106.615 414.526 100.281 414.526 92.5062C414.526 85.7396 411.83 80.1535 406.438 75.748C401.016 71.3712 392.972 69.1829 382.306 69.1829ZM337.198 199.837V54.2818H382.306C397.712 54.2818 410.052 57.7371 419.326 64.6477C428.57 71.5584 433.192 80.8445 433.192 92.5062C433.192 100.857 430.792 108.084 425.992 114.188C421.163 120.322 414.971 124.18 407.415 125.764C415.711 127.059 422.792 130.688 428.659 136.648C434.495 142.637 437.413 150.743 437.413 160.965C437.413 172.626 433.458 182.013 425.548 189.126C417.607 196.267 406.378 199.837 391.861 199.837H337.198ZM533.185 150.599V90.3467H550.74V199.837H533.185V180.833C527.26 194.366 515.483 201.133 497.854 201.133C486.744 201.133 477.959 197.922 471.5 191.501C465.071 185.109 461.856 176.514 461.856 165.716V90.3467H479.411V161.397C479.411 169.315 481.485 175.362 485.633 179.537C489.78 183.712 495.41 185.8 502.52 185.8C511.853 185.8 519.29 182.632 524.83 176.298C530.4 169.963 533.185 161.397 533.185 150.599ZM601.581 199.837H584.071V90.3467H601.581V199.837ZM584.604 63.8703C582.471 61.7971 581.404 59.1768 581.404 56.0095C581.404 52.8421 582.471 50.1786 584.604 48.019C586.767 45.8594 589.463 44.7797 592.692 44.7797C595.981 44.7797 598.736 45.8594 600.958 48.019C603.181 50.1786 604.292 52.8421 604.292 56.0095C604.292 59.1768 603.181 61.7971 600.958 63.8703C598.736 65.9723 595.981 67.0233 592.692 67.0233C589.463 67.0233 586.767 65.9723 584.604 63.8703ZM653.355 199.837H635.801V47.1552H653.355V199.837ZM729.572 186.016C738.757 186.016 746.579 182.704 753.038 176.082C759.467 169.459 762.681 158.877 762.681 144.336C762.681 130.515 759.348 120.365 752.682 113.886C746.016 107.407 738.683 104.168 730.683 104.168C721.351 104.168 713.618 107.796 707.485 115.052C701.322 122.337 698.241 132.746 698.241 146.28C698.241 158.085 701.204 167.659 707.129 175.002C713.055 182.345 720.536 186.016 729.572 186.016ZM762.681 106.975V47.1552H780.236V199.837H762.681V183.64C754.682 195.59 743.127 201.565 728.017 201.565C713.055 201.565 701.322 196.166 692.819 185.368C684.286 174.57 680.02 161.469 680.02 146.064C680.02 128.931 684.538 115.067 693.575 104.47C702.611 93.9028 714.24 88.619 728.461 88.619C743.127 88.619 754.534 94.7378 762.681 106.975ZM831.121 199.837H813.567V90.3467H831.121V199.837ZM814.1 63.8703C811.967 61.7971 810.9 59.1768 810.9 56.0095C810.9 52.8421 811.967 50.1786 814.1 48.019C816.263 45.8594 818.974 44.7797 822.233 44.7797C825.492 44.7797 828.233 45.8594 830.455 48.019C832.677 50.1786 833.788 52.8421 833.788 56.0095C833.788 59.1768 832.677 61.7971 830.455 63.8703C828.233 65.9723 825.492 67.0233 822.233 67.0233C818.974 67.0233 816.263 65.9723 814.1 63.8703ZM918.227 47.1552V62.7041C914.671 61.5524 911.264 60.9765 908.005 60.9765C903.265 60.9765 899.369 62.5602 896.317 65.7275C893.295 68.8949 891.784 73.7899 891.784 80.4126V90.3467H916.671V104.168H891.784V199.837H874.23V104.168H854.898V90.3467H874.23V80.1967C874.23 69.5428 877.148 61.1204 882.985 54.9297C888.851 48.7389 896.969 45.6435 907.339 45.6435C910.894 45.6435 914.523 46.1474 918.227 47.1552ZM968.624 197.03L923.071 90.3467H942.847L957.513 126.412L977.29 176.082C978.475 172.338 984.4 155.782 995.066 126.412L1008.18 90.3467H1027.06L986.4 197.03C980.623 211.859 973.779 222.297 965.868 228.343C957.928 234.39 948.847 237.414 938.625 237.414C934.774 237.414 931.663 237.054 929.293 236.334V221.001C931.515 221.577 934.033 221.865 936.848 221.865C951.81 221.865 962.402 213.586 968.624 197.03Z" fill="white"/>
</g>
</g>
</g>
</g>
</g>
</g>
</mask>
<g mask="url(#mask0_101_6)">
<path d="M1027.11 0H0V282.193H1027.11V0Z" fill="url(#paint0_linear_101_6)"/>
</g>
</g>
<defs>
<linearGradient id="paint0_linear_101_6" x1="8.27012e-08" y1="154.642" x2="1027.06" y2="162.118" gradientUnits="userSpaceOnUse">
<stop stop-color="#FF6CAB"/>
<stop offset="1" stop-color="#7366FF"/>
</linearGradient>
<clipPath id="clip0_101_6">
<rect width="1027.11" height="282.193" fill="white"/>
</clipPath>
<clipPath id="clip1_101_6">
<rect width="1027.11" height="282.193" fill="white"/>
</clipPath>
<clipPath id="clip2_101_6">
<rect width="290.361" height="282.193" fill="white"/>
</clipPath>
<clipPath id="clip3_101_6">
<rect width="290.361" height="282.193" fill="white"/>
</clipPath>
<clipPath id="clip4_101_6">
<rect width="1027.11" height="282.193" fill="white"/>
</clipPath>
<clipPath id="clip5_101_6">
<rect width="1027.11" height="282.193" fill="white"/>
</clipPath>
<clipPath id="clip6_101_6">
<rect width="689.955" height="192.634" fill="white" transform="translate(337.153 44.7797)"/>
</clipPath>
<clipPath id="clip7_101_6">
<rect width="689.955" height="192.634" fill="white" transform="translate(337.153 44.7797)"/>
</clipPath>
<clipPath id="clip8_101_6">
<rect width="689.955" height="192.634" fill="white" transform="translate(337.153 44.7797)"/>
</clipPath>
<clipPath id="clip9_101_6">
<rect width="689.955" height="192.634" fill="white" transform="translate(337.153 44.7797)"/>
</clipPath>
</defs>
</svg>
