<svg width="291" height="283" viewBox="0 0 291 283" fill="none" xmlns="http://www.w3.org/2000/svg">
<path d="M145.18 0C65.1269 0 0 63.2949 0 141.097C0 218.898 65.1269 282.193 145.18 282.193C225.234 282.193 290.361 218.898 290.361 141.097C290.361 63.2949 225.234 0 145.18 0ZM251.485 220.921C239.155 214.54 224.196 209.293 207.613 205.515C212.033 187.742 214.657 167.717 215.023 146.322H279.472C278.332 174.343 268.068 200.117 251.485 220.921ZM10.8885 146.322H33.171C35.4724 153.414 42.226 158.608 50.2755 158.608C58.54 158.608 65.4495 153.142 67.5627 145.758C68.2778 146.093 69.0521 146.322 69.9017 146.322H75.3433C75.7089 167.403 78.2576 187.167 82.5647 204.752C65.8151 208.3 50.5927 213.312 37.7953 219.583C21.8416 199.014 12.007 173.742 10.8885 146.322ZM38.048 62.2968C50.469 69.106 65.5355 74.5931 82.2797 78.5752C78.1393 95.8726 75.6982 115.239 75.3433 135.871H69.9017C69.0521 135.871 68.2778 136.101 67.5627 136.44C65.4495 129.051 58.54 123.59 50.2755 123.59C42.226 123.59 35.4724 128.779 33.171 135.876H10.8885C12.0123 108.31 21.9491 82.923 38.048 62.2968ZM145.18 104.516C148.143 104.516 150.558 106.862 150.558 109.742C150.558 112.621 148.143 114.968 145.18 114.968C142.218 114.968 139.803 112.621 139.803 109.742C139.803 106.862 142.218 104.516 145.18 104.516ZM150.558 124.458C156.8 122.289 161.312 116.546 161.312 109.742C161.312 102.938 156.8 97.1947 150.558 95.026V85.9749C166.802 85.8913 182.691 84.5221 197.693 82.0608C201.564 98.428 203.903 116.687 204.269 135.871H150.558V124.458ZM150.558 75.5233V11.0421C169.038 14.9249 185.352 38.5194 195.031 71.9227C180.9 74.1855 165.904 75.4397 150.558 75.5233ZM139.803 11.0421V75.3352C124.409 74.8805 109.557 73.2971 95.6954 70.679C105.417 37.9341 121.559 14.8726 139.803 11.0421ZM139.803 85.8704V95.026C133.555 97.1947 129.049 102.938 129.049 109.742C129.049 116.546 133.555 122.289 139.803 124.452V135.871H86.0974C86.4684 116.222 88.9096 97.5396 92.9531 80.8641C107.692 83.6912 123.495 85.4053 139.803 85.8704ZM57.5399 141.097C57.5399 144.99 54.2814 148.157 50.2755 148.157C46.2695 148.157 43.0164 144.99 43.0164 141.097C43.0164 137.203 46.2749 134.037 50.2808 134.037C54.2867 134.037 57.5399 137.203 57.5399 141.097ZM86.0974 146.322H139.803V198.675C123.753 198.852 108.079 200.263 93.2919 202.756C89.044 185.73 86.4792 166.525 86.0974 146.322ZM139.803 209.121V271.151C121.806 267.373 105.858 244.902 96.0933 212.873C109.977 210.584 124.699 209.293 139.803 209.121ZM150.558 271.151V209.173C150.902 209.184 151.257 209.184 151.595 209.194C153.87 215.183 159.747 219.484 166.689 219.484C172.738 219.484 177.954 216.197 180.712 211.394C185.261 211.974 189.724 212.654 194.096 213.443C184.32 245.174 168.447 267.394 150.558 271.151ZM166.689 209.032C163.721 209.032 161.312 206.691 161.312 203.806C161.312 200.922 163.721 198.58 166.689 198.58C169.657 198.58 172.066 200.922 172.066 203.806C172.066 206.691 169.657 209.032 166.689 209.032ZM182.535 201.094C181.207 193.741 174.631 188.129 166.689 188.129C159.629 188.129 153.676 192.592 151.498 198.737C151.187 198.732 150.875 198.727 150.558 198.722V146.322H204.264C203.882 166.755 201.252 186.159 196.924 203.326C192.219 202.458 187.417 201.726 182.535 201.094ZM215.018 135.871C214.673 115.861 212.367 97.0327 208.447 80.1325C225.659 76.5789 241.268 71.4629 254.378 65.0456C269.251 85.1597 278.397 109.517 279.467 135.866L215.018 135.871ZM247.597 56.6111C235.579 62.2602 221.443 66.8171 205.834 70.0048C198.94 45.6996 188.568 26.1395 175.98 13.9477C204.366 20.4486 229.304 35.6922 247.597 56.6111ZM114.381 13.9529C102.067 25.8782 91.8723 44.8322 84.979 68.4005C69.9232 64.8313 56.3623 60.0079 45.0597 54.0348C63.1212 34.438 87.1674 20.1768 114.381 13.9529ZM44.8339 227.902C56.5182 222.431 70.2082 218.01 85.2801 214.848C92.1681 237.931 102.25 256.493 114.381 268.24C87.0491 261.99 62.9223 247.63 44.8339 227.902ZM175.986 268.24C187.976 256.623 197.967 238.333 204.844 215.611C219.739 218.987 233.203 223.565 244.425 229.12C226.465 248.226 202.753 262.116 175.986 268.24Z" fill="url(#paint0_linear_101_47)"/>
<defs>
<linearGradient id="paint0_linear_101_47" x1="253" y1="228" x2="54" y2="40.5" gradientUnits="userSpaceOnUse">
<stop stop-color="#7B67FB"/>
<stop offset="1" stop-color="#D06AC8"/>
</linearGradient>
</defs>
</svg>
